<svg id="Camada_1" data-name="Camada 1" xmlns="http://www.w3.org/2000/svg" viewBox="0 0 471.44 78.61"><title>Prancheta 1</title><text transform="translate(77.01 31.65)" style="font-size:37px;fill:#fff;font-family:Roboto-Bold, Roboto;font-weight:700;letter-spacing:0.10000527871621621em">HUDSON CAROLINO</text><text transform="translate(78.88 69.94)" style="font-size:32px;fill:#fff;font-family:Roboto-Light, Roboto;letter-spacing:0.1099853515625em">Desen<tspan x="105.4" y="0" style="letter-spacing:0.102691650390625em">v</tspan><tspan x="124.07" y="0">ol</tspan><tspan x="156.21" y="0" style="letter-spacing:0.1036376953125em">v</tspan><tspan x="174.91" y="0" style="letter-spacing:0.110015869140625em">edor </tspan><tspan x="263.3" y="0" style="letter-spacing:0.0948486328125em">W</tspan><tspan x="295.02" y="0" style="letter-spacing:0.110015869140625em">eb</tspan></text><polygon points="43.26 27.1 42.67 27.1 21.33 27.1 20.74 27.1 0 27.1 0 69.77 21.33 69.77 21.33 48.44 42.67 48.44 42.67 69.77 64 69.77 64 27.1 43.26 27.1" style="fill:#0cf"/><polygon points="43.26 48.44 42.67 48.44 21.33 48.44 20.74 48.44 0 48.44 0 5.77 21.33 5.77 21.33 27.1 42.67 27.1 42.67 5.77 64 5.77 64 48.44 43.26 48.44" style="fill:aqua"/></svg>