<?xml version="1.0" encoding="utf-8"?>
<!-- Generator: Adobe Illustrator 21.1.0, SVG Export Plug-In . SVG Version: 6.00 Build 0)  -->
<svg version="1.1" id="Camada_1" xmlns="http://www.w3.org/2000/svg" xmlns:xlink="http://www.w3.org/1999/xlink" x="0px" y="0px"
	 viewBox="0 0 471.4 78.6" style="enable-background:new 0 0 471.4 78.6;" xml:space="preserve">
<style type="text/css">
	.st0{fill:#FFFFFF;}
	.st1{fill:#00CCFF;}
	.st2{fill:#00FFFF;}
</style>
<g>
	<path class="st0" d="M100.8,31.7h-5.4V20.4H84.8v11.3h-5.4V5.3h5.4V16h10.6V5.3h5.4V31.7z"/>
	<path class="st0" d="M129.1,5.3v17.3c0,2.9-0.9,5.2-2.7,6.8c-1.8,1.7-4.3,2.5-7.4,2.5s-5.5-0.8-7.3-2.4s-2.7-3.9-2.8-6.7V5.3h5.4
		v17.4c0,1.7,0.4,3,1.2,3.8c0.8,0.8,2,1.2,3.4,1.2c3,0,4.6-1.6,4.6-4.8V5.3H129.1z"/>
	<path class="st0" d="M137.3,31.7V5.3h8.1c2.3,0,4.4,0.5,6.2,1.6c1.8,1,3.2,2.5,4.3,4.4c1,1.9,1.5,4.1,1.5,6.5V19
		c0,2.4-0.5,4.6-1.5,6.5s-2.4,3.4-4.3,4.4c-1.8,1-3.9,1.6-6.2,1.6h-8.1V31.7z M142.7,9.7v17.6h2.6c2.1,0,3.7-0.7,4.9-2.1
		c1.1-1.4,1.7-3.4,1.7-5.9v-1.4c0-2.7-0.6-4.7-1.7-6.1c-1.1-1.4-2.7-2.1-4.9-2.1C145.3,9.7,142.7,9.7,142.7,9.7z"/>
	<path class="st0" d="M178.6,24.8c0-1-0.4-1.8-1.1-2.4c-0.7-0.5-2-1.1-3.9-1.7s-3.4-1.2-4.5-1.8c-3-1.6-4.5-3.8-4.5-6.5
		c0-1.4,0.4-2.7,1.2-3.8s2-2,3.5-2.6s3.2-0.9,5-0.9c1.9,0,3.6,0.3,5,1c1.5,0.7,2.6,1.6,3.4,2.9c0.8,1.2,1.2,2.6,1.2,4.2h-5.4
		c0-1.2-0.4-2.1-1.1-2.8c-0.8-0.7-1.8-1-3.2-1c-1.3,0-2.4,0.3-3.1,0.8c-0.7,0.6-1.1,1.3-1.1,2.2s0.4,1.6,1.3,2.1
		c0.9,0.6,2.1,1.1,3.8,1.6c3.1,0.9,5.3,2.1,6.7,3.5s2.1,3.1,2.1,5.1c0,2.3-0.9,4.1-2.6,5.4c-1.7,1.3-4,1.9-7,1.9
		c-2,0-3.9-0.4-5.5-1.1c-1.7-0.7-2.9-1.8-3.8-3c-0.9-1.3-1.3-2.8-1.3-4.5h5.4c0,2.9,1.7,4.4,5.2,4.4c1.3,0,2.3-0.3,3-0.8
		C178.3,26.4,178.6,25.7,178.6,24.8z"/>
	<path class="st0" d="M213.1,19.1c0,2.6-0.5,4.9-1.4,6.8s-2.2,3.5-3.9,4.5c-1.7,1.1-3.7,1.6-5.9,1.6s-4.1-0.5-5.8-1.6
		c-1.7-1-3-2.5-4-4.5c-0.9-1.9-1.4-4.2-1.4-6.7v-1.3c0-2.6,0.5-4.9,1.4-6.8c0.9-2,2.3-3.5,4-4.5c1.7-1.1,3.7-1.6,5.8-1.6
		s4.1,0.5,5.8,1.6s3,2.6,4,4.5c0.9,2,1.4,4.2,1.4,6.8L213.1,19.1L213.1,19.1z M207.6,17.9c0-2.8-0.5-4.9-1.5-6.3s-2.4-2.1-4.2-2.1
		s-3.2,0.7-4.2,2.1s-1.5,3.5-1.5,6.2v1.3c0,2.7,0.5,4.8,1.5,6.3s2.4,2.2,4.3,2.2c1.8,0,3.2-0.7,4.2-2.1s1.5-3.5,1.5-6.2v-1.4H207.6z
		"/>
	<path class="st0" d="M242.1,31.7h-5.4l-10.6-17.3v17.3h-5.4V5.3h5.4l10.6,17.3V5.3h5.4V31.7z"/>
	<path class="st0" d="M284.1,22.9c-0.2,2.8-1.3,5.1-3.1,6.7s-4.4,2.4-7.5,2.4c-3.4,0-6-1.1-8-3.4c-1.9-2.3-2.9-5.4-2.9-9.3v-1.6
		c0-2.5,0.4-4.8,1.3-6.7s2.2-3.4,3.8-4.4c1.7-1,3.6-1.5,5.8-1.5c3,0,5.5,0.8,7.3,2.4c1.9,1.6,2.9,3.9,3.2,6.8h-5.4
		c-0.1-1.7-0.6-2.9-1.4-3.7s-2-1.1-3.7-1.1c-1.8,0-3.2,0.6-4.1,1.9s-1.4,3.3-1.4,6v2c0,2.8,0.4,4.9,1.3,6.2c0.9,1.3,2.2,2,4.1,2
		c1.7,0,2.9-0.4,3.7-1.1c0.8-0.8,1.3-1.9,1.4-3.6C278.5,22.9,284.1,22.9,284.1,22.9z"/>
	<path class="st0" d="M306.2,26.2h-9.5l-1.8,5.4h-5.8l9.8-26.3h5l9.8,26.3H308L306.2,26.2z M298.2,21.8h6.6l-3.3-9.8L298.2,21.8z"/>
	<path class="st0" d="M329.7,22h-4.3v9.6H320V5.3h9.8c3.1,0,5.5,0.7,7.2,2.1s2.5,3.3,2.5,5.9c0,1.8-0.4,3.3-1.2,4.5
		c-0.8,1.2-2,2.2-3.5,2.9l5.7,10.7v0.3h-5.8L329.7,22z M325.4,17.6h4.4c1.4,0,2.4-0.3,3.2-1c0.7-0.7,1.1-1.6,1.1-2.9
		c0-1.2-0.4-2.2-1.1-2.9s-1.8-1.1-3.2-1.1h-4.4V17.6z"/>
	<path class="st0" d="M368.9,19.1c0,2.6-0.5,4.9-1.4,6.8c-0.9,2-2.2,3.5-3.9,4.5c-1.7,1.1-3.7,1.6-5.9,1.6c-2.2,0-4.1-0.5-5.8-1.6
		s-3-2.5-4-4.5c-0.9-1.9-1.4-4.2-1.4-6.7v-1.3c0-2.6,0.5-4.9,1.4-6.8c0.9-2,2.3-3.5,4-4.5c1.7-1.1,3.7-1.6,5.8-1.6
		c2.2,0,4.1,0.5,5.8,1.6c1.7,1.1,3,2.6,4,4.5c0.9,2,1.4,4.2,1.4,6.8V19.1z M363.4,17.9c0-2.8-0.5-4.9-1.5-6.3s-2.4-2.1-4.2-2.1
		c-1.8,0-3.2,0.7-4.2,2.1s-1.5,3.5-1.5,6.2v1.3c0,2.7,0.5,4.8,1.5,6.3s2.4,2.2,4.3,2.2c1.8,0,3.2-0.7,4.2-2.1s1.5-3.5,1.5-6.2
		L363.4,17.9L363.4,17.9z"/>
	<path class="st0" d="M381.9,27.3h11.5v4.4h-16.9V5.3h5.4V27.3z"/>
	<path class="st0" d="M406,31.7h-5.4V5.3h5.4V31.7z"/>
	<path class="st0" d="M436.1,31.7h-5.4l-10.6-17.3v17.3h-5.4V5.3h5.4l10.6,17.3V5.3h5.4V31.7z"/>
	<path class="st0" d="M466.1,19.1c0,2.6-0.5,4.9-1.4,6.8s-2.2,3.5-3.9,4.5c-1.7,1.1-3.7,1.6-5.9,1.6c-2.2,0-4.1-0.5-5.8-1.6
		c-1.7-1-3-2.5-4-4.5c-0.9-1.9-1.4-4.2-1.4-6.7v-1.3c0-2.6,0.5-4.9,1.4-6.8c0.9-2,2.3-3.5,4-4.5c1.7-1.1,3.7-1.6,5.8-1.6
		s4.1,0.5,5.8,1.6c1.7,1.1,3,2.6,4,4.5c0.9,2,1.4,4.2,1.4,6.8V19.1z M460.7,17.9c0-2.8-0.5-4.9-1.5-6.3s-2.4-2.1-4.2-2.1
		c-1.8,0-3.2,0.7-4.2,2.1s-1.5,3.5-1.5,6.2v1.3c0,2.7,0.5,4.8,1.5,6.3s2.4,2.2,4.3,2.2c1.8,0,3.2-0.7,4.2-2.1s1.5-3.5,1.5-6.2
		L460.7,17.9L460.7,17.9z"/>
</g>
<g>
	<path class="st0" d="M81.8,69.9V47.2h6.4c1.9,0,3.5,0.4,5,1.3c1.5,0.8,2.6,2.1,3.5,3.6c0.8,1.6,1.2,3.4,1.2,5.4v2.1
		c0,2-0.4,3.8-1.2,5.4c-0.8,1.6-2,2.8-3.5,3.6c-1.5,0.9-3.2,1.3-5.1,1.3H81.8z M83.7,48.8v19.5H88c2.4,0,4.3-0.8,5.8-2.4
		c1.4-1.6,2.2-3.7,2.2-6.5v-2c0-2.6-0.7-4.7-2.1-6.3s-3.3-2.4-5.6-2.4L83.7,48.8L83.7,48.8z"/>
	<path class="st0" d="M112.3,70.3c-1.4,0-2.7-0.4-3.9-1.1c-1.2-0.7-2.1-1.7-2.7-3s-1-2.7-1-4.3v-0.7c0-1.6,0.3-3.1,0.9-4.4
		c0.6-1.3,1.5-2.3,2.6-3.1c1.1-0.7,2.3-1.1,3.7-1.1c2.1,0,3.7,0.7,4.9,2.1c1.2,1.4,1.8,3.3,1.8,5.7v1h-12.1V62
		c0,1.9,0.5,3.5,1.6,4.8s2.5,1.9,4.1,1.9c1,0,1.9-0.2,2.6-0.5c0.8-0.4,1.5-0.9,2.1-1.8l1.2,0.9C116.9,69.3,114.9,70.3,112.3,70.3z
		 M112,54.3c-1.4,0-2.6,0.5-3.6,1.5s-1.5,2.4-1.8,4.2h10.1v-0.2c-0.1-1.6-0.5-2.9-1.4-4C114.6,54.8,113.4,54.3,112,54.3z"/>
	<path class="st0" d="M136,65.6c0-0.9-0.4-1.7-1.1-2.2c-0.7-0.6-1.9-1-3.4-1.3s-2.7-0.7-3.5-1.1c-0.8-0.4-1.4-0.9-1.8-1.5
		s-0.6-1.3-0.6-2.2c0-1.3,0.6-2.4,1.7-3.3c1.1-0.9,2.5-1.3,4.3-1.3c1.9,0,3.4,0.5,4.5,1.4s1.7,2.1,1.7,3.6h-1.9c0-1-0.4-1.8-1.2-2.5
		s-1.9-1-3.1-1c-1.2,0-2.2,0.3-3,0.8c-0.7,0.5-1.1,1.3-1.1,2.1s0.3,1.5,0.9,2c0.6,0.5,1.8,0.9,3.4,1.3c1.6,0.4,2.9,0.8,3.7,1.2
		s1.4,1,1.8,1.6c0.4,0.6,0.6,1.4,0.6,2.2c0,1.4-0.6,2.6-1.7,3.4c-1.2,0.9-2.7,1.3-4.5,1.3c-2,0-3.6-0.5-4.8-1.4
		c-1.2-1-1.8-2.2-1.8-3.6h1.9c0.1,1.1,0.5,1.9,1.4,2.6c0.8,0.6,2,0.9,3.4,0.9c1.3,0,2.4-0.3,3.2-0.9C135.6,67.2,136,66.5,136,65.6z"
		/>
	<path class="st0" d="M152.1,70.3c-1.4,0-2.7-0.4-3.9-1.1s-2.1-1.7-2.7-3c-0.6-1.3-1-2.7-1-4.3v-0.7c0-1.6,0.3-3.1,0.9-4.4
		c0.6-1.3,1.5-2.3,2.6-3.1c1.1-0.7,2.3-1.1,3.7-1.1c2.1,0,3.7,0.7,4.9,2.1c1.2,1.4,1.8,3.3,1.8,5.7v1h-12.1V62
		c0,1.9,0.5,3.5,1.6,4.8s2.5,1.9,4.1,1.9c1,0,1.9-0.2,2.6-0.5c0.8-0.4,1.5-0.9,2.1-1.8l1.2,0.9C156.7,69.3,154.7,70.3,152.1,70.3z
		 M151.8,54.3c-1.4,0-2.6,0.5-3.6,1.5s-1.5,2.4-1.8,4.2h10.1v-0.2c-0.1-1.6-0.5-2.9-1.4-4C154.3,54.8,153.2,54.3,151.8,54.3z"/>
	<path class="st0" d="M167.4,53l0.1,2.9c0.6-1,1.4-1.8,2.4-2.4c0.9-0.5,2-0.8,3.1-0.8c1.8,0,3.2,0.5,4,1.5c0.9,1,1.3,2.6,1.3,4.6
		v11.1h-1.9V58.8c0-1.5-0.3-2.6-1-3.4c-0.6-0.7-1.6-1.1-3-1.1c-1.2,0-2.2,0.4-3.1,1.1c-0.9,0.7-1.5,1.7-2,2.9v11.6h-1.9V53H167.4z"
		/>
	<path class="st0" d="M192,67.4l5.1-14.3h1.9L192.7,70h-1.5l-6.3-17h1.9L192,67.4z"/>
	<path class="st0" d="M204.4,61.2c0-1.6,0.3-3.1,0.9-4.4c0.6-1.3,1.5-2.3,2.7-3s2.5-1.1,3.9-1.1c2.3,0,4.1,0.8,5.5,2.4
		c1.4,1.6,2.1,3.7,2.1,6.3v0.4c0,1.6-0.3,3.1-0.9,4.4c-0.6,1.3-1.5,2.3-2.7,3c-1.1,0.7-2.5,1.1-3.9,1.1c-2.2,0-4.1-0.8-5.5-2.4
		s-2.1-3.7-2.1-6.3V61.2z M206.2,61.8c0,2,0.5,3.7,1.6,5s2.4,1.9,4.1,1.9c1.7,0,3.1-0.6,4.1-1.9s1.6-3,1.6-5.1v-0.4
		c0-1.3-0.2-2.5-0.7-3.5c-0.5-1.1-1.2-1.9-2-2.5c-0.9-0.6-1.9-0.9-3-0.9c-1.7,0-3,0.7-4.1,2s-1.6,3-1.6,5.1L206.2,61.8L206.2,61.8z"
		/>
	<path class="st0" d="M228.9,69.9H227v-24h1.9V69.9z"/>
	<path class="st0" d="M242.8,67.4l5.1-14.3h1.9L243.5,70H242l-6.3-17h1.9L242.8,67.4z"/>
	<path class="st0" d="M262.8,70.3c-1.4,0-2.7-0.4-3.9-1.1c-1.2-0.7-2.1-1.7-2.7-3s-1-2.7-1-4.3v-0.7c0-1.6,0.3-3.1,0.9-4.4
		c0.6-1.3,1.5-2.3,2.6-3.1c1.1-0.7,2.3-1.1,3.7-1.1c2.1,0,3.7,0.7,4.9,2.1c1.2,1.4,1.8,3.3,1.8,5.7v1H257V62c0,1.9,0.5,3.5,1.6,4.8
		s2.5,1.9,4.1,1.9c1,0,1.9-0.2,2.6-0.5c0.8-0.4,1.5-0.9,2.1-1.8l1.2,0.9C267.4,69.3,265.4,70.3,262.8,70.3z M262.4,54.3
		c-1.4,0-2.6,0.5-3.6,1.5s-1.5,2.4-1.8,4.2h10.1v-0.2c-0.1-1.6-0.5-2.9-1.4-4C265,54.8,263.8,54.3,262.4,54.3z"/>
	<path class="st0" d="M275.5,61.3c0-2.6,0.6-4.7,1.8-6.3c1.2-1.6,2.8-2.3,4.8-2.3c2.3,0,4,0.9,5.2,2.7v-9.5h1.9v24h-1.8l-0.1-2.3
		c-1.2,1.7-3,2.6-5.3,2.6c-1.9,0-3.5-0.8-4.7-2.4S275.5,64.1,275.5,61.3L275.5,61.3z M277.4,61.7c0,2.2,0.4,3.9,1.3,5.1
		c0.9,1.2,2.1,1.9,3.7,1.9c2.3,0,3.9-1,4.9-3v-7.9c-1-2.2-2.6-3.3-4.9-3.3c-1.6,0-2.8,0.6-3.7,1.9S277.4,59.3,277.4,61.7z"/>
	<path class="st0" d="M296.5,61.2c0-1.6,0.3-3.1,0.9-4.4c0.6-1.3,1.5-2.3,2.7-3s2.5-1.1,3.9-1.1c2.3,0,4.1,0.8,5.5,2.4
		c1.4,1.6,2.1,3.7,2.1,6.3v0.4c0,1.6-0.3,3.1-0.9,4.4s-1.5,2.3-2.7,3c-1.1,0.7-2.5,1.1-3.9,1.1c-2.2,0-4.1-0.8-5.5-2.4
		s-2.1-3.7-2.1-6.3V61.2z M298.4,61.8c0,2,0.5,3.7,1.6,5s2.4,1.9,4.1,1.9s3.1-0.6,4.1-1.9s1.6-3,1.6-5.1v-0.4c0-1.3-0.2-2.5-0.7-3.5
		c-0.5-1.1-1.2-1.9-2-2.5c-0.9-0.6-1.9-0.9-3-0.9c-1.7,0-3,0.7-4.1,2s-1.6,3-1.6,5.1V61.8z"/>
	<path class="st0" d="M326.8,54.6c-0.4-0.1-0.8-0.1-1.3-0.1c-1.2,0-2.2,0.3-3,1s-1.4,1.6-1.7,2.8v11.6H319V53h1.8v2.7
		c1-2,2.6-3,4.8-3c0.5,0,0.9,0.1,1.2,0.2V54.6z"/>
	<path class="st0" d="M349.2,63.8l0.7,3.5l0.9-3.4l4.9-16.8h1.7l4.9,16.8l0.8,3.4l0.8-3.6l4.1-16.6h2l-5.8,22.8h-1.8l-5.2-17.8
		l-0.6-2.3l-0.6,2.3l-5.3,17.8h-1.8l-5.8-22.8h2L349.2,63.8z"/>
	<path class="st0" d="M382.9,70.3c-1.4,0-2.7-0.4-3.9-1.1c-1.2-0.7-2.1-1.7-2.7-3s-1-2.7-1-4.3v-0.7c0-1.6,0.3-3.1,0.9-4.4
		c0.6-1.3,1.5-2.3,2.6-3.1c1.1-0.7,2.3-1.1,3.7-1.1c2.1,0,3.7,0.7,4.9,2.1c1.2,1.4,1.8,3.3,1.8,5.7v1h-12.1V62
		c0,1.9,0.5,3.5,1.6,4.8s2.5,1.9,4.1,1.9c1,0,1.9-0.2,2.6-0.5c0.8-0.4,1.5-0.9,2.1-1.8l1.2,0.9C387.5,69.3,385.5,70.3,382.9,70.3z
		 M382.5,54.3c-1.4,0-2.6,0.5-3.6,1.5s-1.5,2.4-1.8,4.2h10.1v-0.2c-0.1-1.6-0.5-2.9-1.4-4C385.1,54.8,384,54.3,382.5,54.3z"/>
	<path class="st0" d="M410,61.7c0,2.6-0.6,4.7-1.8,6.3c-1.2,1.5-2.7,2.3-4.7,2.3c-2.4,0-4.1-0.9-5.3-2.6l-0.1,2.3h-1.8V46h1.9v9.5
		c1.2-1.8,2.9-2.8,5.3-2.8c2,0,3.6,0.8,4.7,2.3c1.2,1.5,1.7,3.6,1.7,6.4L410,61.7L410,61.7z M408.1,61.3c0-2.2-0.4-4-1.3-5.2
		s-2.1-1.8-3.7-1.8c-1.2,0-2.2,0.3-3,0.9c-0.8,0.6-1.5,1.5-1.9,2.6v7.6c0.9,2.1,2.6,3.2,5,3.2c1.5,0,2.7-0.6,3.6-1.8
		C407.7,65.6,408.1,63.8,408.1,61.3z"/>
</g>
<g>
	<polygon class="st1" points="43.3,27.1 42.7,27.1 21.3,27.1 20.7,27.1 0,27.1 0,69.8 21.3,69.8 21.3,48.4 42.7,48.4 42.7,69.8 
		64,69.8 64,27.1 	"/>
	<polygon class="st2" points="43.3,48.4 42.7,48.4 21.3,48.4 20.7,48.4 0,48.4 0,5.8 21.3,5.8 21.3,27.1 42.7,27.1 42.7,5.8 64,5.8 
		64,48.4 	"/>
</g>
</svg>
